<?xml version="1.0" encoding="UTF-8"?><svg id="Layer_1" xmlns="http://www.w3.org/2000/svg" xmlns:xlink="http://www.w3.org/1999/xlink" viewBox="0 0 362.12 364.79"><defs><style>.cls-1{fill:none;}.cls-2{clip-path:url(#clippath);}.cls-3{fill:#fee36e;}.cls-4{fill:#373e98;}</style><clipPath id="clippath"><path class="cls-1" d="m28.54,1.68v361.44h335.58V1.68H28.54Zm212.19,359.44l-5.26-7.35h85.09l-129.09-172.28c-1.97-2.62-1.96-6.23.02-8.85L313.88,11.03h-79.46l5.3-7.35h88.96l-131.31,173.4,137.91,184.04h-94.53Z"/></clipPath></defs><path class="cls-4" d="m241.96,361.11l-112.05-156.67v156.67H30.54V3.68h99.37v154.13L240.94,3.68h114.58l-131.31,173.4,137.91,184.04h-120.16Z"/><path class="cls-3" d="m313.88,11.03l-122.39,161.61c-1.98,2.61-1.99,6.22-.02,8.85l129.09,172.28h-101.69l-109.85-153.59c-1.41-1.97-3.65-3.08-5.98-3.08-.75,0-1.5.11-2.24.35-3.04.98-5.11,3.81-5.11,7v149.31H11.03V11.03h84.67v146.78c0,3.19,2.06,6.02,5.09,7,.74.24,1.5.36,2.26.36,2.32,0,4.56-1.1,5.97-3.05L217.85,11.03h96.03m14.79-7.35h-114.58l-111.03,154.13V3.68H3.68v357.44h99.37v-156.67l112.05,156.67h120.16l-137.91-184.04L328.67,3.68h0Z"/><g class="cls-2"><path class="cls-4" d="m241.96,361.11l-112.05-156.67v156.67H30.54V3.68h99.37v154.13L240.94,3.68h114.58l-131.31,173.4,137.91,184.04h-120.16Z"/></g></svg>