<?xml version="1.0" encoding="UTF-8"?><svg id="Layer_1" xmlns="http://www.w3.org/2000/svg" xmlns:xlink="http://www.w3.org/1999/xlink" viewBox="0 0 91.39 92.09"><defs><style>.cls-1{fill:none;}.cls-2{clip-path:url(#clippath);}.cls-3{fill:#fee36e;}.cls-4{fill:#373e98;}</style><clipPath id="clippath"><path class="cls-1" d="m12.57,0v92.07h77.51V0H12.57Zm27.52,33.16l-6.34-13.31,4.29-4.99,6.37,13.37-4.32,4.93Zm19.58,56.91h0s-10.71,0-10.71,0l-1.88-2.15v-21.29l2.04,2.28v16.14h4.54v-11.06l6.02,6.74v9.34Z"/></clipPath></defs><path class="cls-3" d="m81.43,6.03l-26.32,50.26-.46.88v28.91h-6.54v-28.91l-.46-.88L21.22,6.03h7.05l19.49,40.92,3.63,7.62,3.63-7.62L74.5,6.03h6.93m6.64-4.02h0,0Zm0,0h-16.11l-20.58,43.21L30.81,2.01H14.57l29.53,56.14v31.93h14.57v-31.93L88.07,2.01h0Z"/><path class="cls-4" d="m14.57,50.67v39.41H0V2.01h14.57v40.17L49.09,2.01h18.28L28.76,46.11l39.24,43.97h-19.05L14.57,50.67Z"/><g class="cls-2"><path class="cls-3" d="m81.43,6.03l-26.32,50.26-.46.88v28.91h-6.54v-28.91l-.46-.88L21.22,6.03h7.05l19.49,40.92,3.63,7.62,3.63-7.62L74.5,6.03h6.93m6.64-4.02h0,0Zm0,0h-16.11l-20.58,43.21L30.81,2.01H14.57l29.53,56.14v31.93h14.57v-31.93L88.07,2.01h0Z"/></g></svg>